<?xml version="1.0" encoding="utf-8"?>
<!-- Generator: Adobe Illustrator 24.1.0, SVG Export Plug-In . SVG Version: 6.00 Build 0)  -->
<svg version="1.1" id="Layer_1" xmlns="http://www.w3.org/2000/svg" xmlns:xlink="http://www.w3.org/1999/xlink" x="0px" y="0px"
	 viewBox="0 0 10100 2580" style="enable-background:new 0 0 10100 2580;" xml:space="preserve">
<g>
	<path style="fill:#FABE00;" d="M1395.74,1269.59c-84.98,305.86-149.54,655.86-149.54,655.86h-6.78c0,0-67.99-350.01-152.93-655.86L743.27,49.62H50
		v2429.77h451.97V1086.07c0-197.08-20.38-502.93-20.38-502.93h6.78c0,0,54.39,285.44,105.36,462.18l407.79,1434.07h472.38
		l417.99-1434.07c50.96-176.73,105.32-462.18,105.32-462.18h6.82c0,0-20.41,305.86-20.41,502.93v1393.31h458.79V49.62h-703.44
		L1395.74,1269.59z"/>
	<path style="fill:#FABE00;" d="M3471.78,688.46c-540.34,0-910.76,401.01-910.76,920.96s370.42,920.96,910.76,920.96s910.72-401.01,910.72-920.96
		S4012.12,688.46,3471.78,688.46z M3471.78,2176.92c-285.48,0-441.8-227.66-441.8-567.5s156.32-570.89,441.8-570.89
		c282.05,0,441.76,231.05,441.76,570.89S3753.84,2176.92,3471.78,2176.92z"/>
	<path style="fill:#FABE00;" d="M5442.55,688.46c-237.91,0-397.61,98.61-516.57,285.52h-10.17V736.07h-451.97v1743.32h462.14v-988.92
		c0-237.83,149.54-401.01,353.43-401.01c193.72,0,302.47,132.59,302.47,319.49v1070.43h462.14V1340.93
		C6044.02,960.34,5802.76,688.46,5442.55,688.46z"/>
	<polygon style="fill:#FABE00;" points="7827.95,736.07 7274.02,736.07 6655.52,1395.32 6655.52,49.62 6196.77,49.62 6196.77,2479.38 6655.52,2479.38 
		6655.52,1891.47 6856.02,1684.15 7345.39,2479.38 7906.11,2479.38 7185.65,1398.71 	"/>
	<path style="fill:#FABE00;" d="M7457.41,1303.82c-0.23,0.23-0.32,0.52-0.54,0.76c-58.06,60.98-15.05,162.13,69.47,162.13h596.67v-404.4H7691.7
		L7457.41,1303.82z"/>
	<polygon style="fill:#FABE00;" points="10050,460.79 10050,49.62 8252.29,49.62 8252.29,2479.38 10050,2479.38 10050,2064.82 8745.05,2064.82 
		8745.05,1466.7 10050,1466.7 10050,1062.3 8745.05,1062.3 8745.05,460.79 	"/>
</g>
</svg>
